<?xml version="1.0" encoding="UTF-8"?>
<svg id="Layer_1" data-name="Layer 1" xmlns="http://www.w3.org/2000/svg" version="1.1" viewBox="0 0 500 500">
  
  <path class="cls-1" fill="white" d="M350.2,153.4v187.4c0,17.1-13.9,31-31,31h-67l1.1-.6,6.3-3.5,44.7-24,11.9-6.3v-58.4l-7.3,3.9-54.1,29.4-56.8-35.9v-.4l54.7-29.4,53.4-28.8,10-5.4v-49.1l-2,1.1-53.8,28.8-41.7,22.5-15.1,8.2-19,10.2v127.2c0,9.6-7.8,17.4-17.4,17.4h0c-9.6,0-17.4-7.8-17.4-17.4v-137.8c0-56.4,45.7-102.1,102.1-102.1h66.2c17.7,0,32,14.3,32,32Z"/>
</svg>